<svg width="18" height="19" viewBox="0 0 18 19" fill="none" xmlns="http://www.w3.org/2000/svg">
  <path fill-rule="evenodd" clip-rule="evenodd" d="M17.64 9.70456C17.64 9.06637 17.5827 8.45274 17.4764 7.86365H9V11.345H13.8436C13.635 12.47 13.0009 13.4232 12.0477 14.0614V16.3196H14.9564C16.6582 14.7527 17.64 12.4455 17.64 9.70456Z" fill="#4285F4"/>
  <path fill-rule="evenodd" clip-rule="evenodd" d="M8.99976 18.5C11.4298 18.5 13.467 17.6941 14.9561 16.3196L12.0475 14.0614C11.2416 14.6014 10.2107 14.9205 8.99976 14.9205C6.65567 14.9205 4.67158 13.3373 3.96385 11.21H0.957031V13.5418C2.43794 16.4832 5.48158 18.5 8.99976 18.5Z" fill="#34A853"/>
  <path fill-rule="evenodd" clip-rule="evenodd" d="M3.96409 11.21C3.78409 10.67 3.68182 10.0932 3.68182 9.50001C3.68182 8.90683 3.78409 8.33001 3.96409 7.79001V5.45819H0.957273C0.347727 6.67319 0 8.04774 0 9.50001C0 10.9523 0.347727 12.3268 0.957273 13.5418L3.96409 11.21Z" fill="#FBBC05"/>
  <path fill-rule="evenodd" clip-rule="evenodd" d="M8.99976 4.07955C10.3211 4.07955 11.5075 4.53364 12.4402 5.42545L15.0216 2.84409C13.4629 1.39182 11.4257 0.5 8.99976 0.5C5.48158 0.5 2.43794 2.51682 0.957031 5.45818L3.96385 7.79C4.67158 5.66273 6.65567 4.07955 8.99976 4.07955Z" fill="#EA4335"/>
</svg>
